<svg width="1800" height="500" viewBox="0 0 1800 500" fill="none" xmlns="http://www.w3.org/2000/svg">
<rect width="1800" height="500" fill="black"/>
<path d="M387.987 307V192.091H433.322C442.038 192.091 449.463 193.755 455.597 197.085C461.732 200.376 466.407 204.958 469.624 210.831C472.879 216.666 474.506 223.399 474.506 231.03C474.506 238.661 472.86 245.393 469.568 251.229C466.277 257.064 461.507 261.609 455.261 264.863C449.051 268.117 441.533 269.744 432.705 269.744H403.81V250.275H428.778C433.453 250.275 437.306 249.471 440.336 247.862C443.403 246.216 445.685 243.953 447.181 241.073C448.715 238.156 449.482 234.808 449.482 231.03C449.482 227.214 448.715 223.885 447.181 221.043C445.685 218.162 443.403 215.937 440.336 214.366C437.269 212.757 433.379 211.953 428.665 211.953H412.282V307H387.987ZM513.678 308.627C508.179 308.627 503.279 307.673 498.978 305.766C494.676 303.821 491.272 300.959 488.766 297.181C486.297 293.366 485.063 288.615 485.063 282.93C485.063 278.142 485.942 274.121 487.7 270.866C489.458 267.612 491.852 264.994 494.882 263.011C497.912 261.029 501.353 259.533 505.206 258.523C509.096 257.513 513.173 256.802 517.437 256.391C522.45 255.867 526.489 255.381 529.557 254.932C532.624 254.446 534.849 253.735 536.233 252.8C537.617 251.865 538.309 250.481 538.309 248.648V248.311C538.309 244.758 537.187 242.008 534.943 240.063C532.736 238.118 529.594 237.146 525.517 237.146C521.215 237.146 517.793 238.099 515.249 240.007C512.705 241.877 511.022 244.234 510.199 247.077L488.093 245.281C489.215 240.045 491.422 235.518 494.714 231.703C498.005 227.85 502.251 224.895 507.45 222.838C512.687 220.743 518.746 219.696 525.629 219.696C530.417 219.696 534.999 220.257 539.375 221.379C543.789 222.501 547.698 224.241 551.102 226.597C554.543 228.954 557.255 231.984 559.238 235.687C561.22 239.353 562.211 243.748 562.211 248.872V307H539.544V295.049H538.87C537.486 297.742 535.635 300.117 533.316 302.175C530.997 304.195 528.21 305.784 524.956 306.944C521.701 308.066 517.942 308.627 513.678 308.627ZM520.523 292.131C524.039 292.131 527.144 291.439 529.837 290.055C532.53 288.634 534.644 286.726 536.177 284.332C537.711 281.938 538.478 279.227 538.478 276.197V267.051C537.73 267.537 536.701 267.986 535.392 268.398C534.12 268.772 532.68 269.127 531.071 269.464C529.463 269.763 527.855 270.044 526.246 270.305C524.638 270.53 523.179 270.736 521.87 270.923C519.064 271.334 516.614 271.989 514.52 272.886C512.425 273.784 510.798 275 509.638 276.533C508.479 278.03 507.899 279.9 507.899 282.144C507.899 285.398 509.077 287.886 511.434 289.607C513.828 291.29 516.857 292.131 520.523 292.131ZM582.335 339.318V220.818H605.9V235.294H606.966C608.014 232.975 609.529 230.618 611.511 228.224C613.531 225.793 616.149 223.773 619.366 222.165C622.621 220.519 626.66 219.696 631.486 219.696C637.77 219.696 643.568 221.342 648.879 224.634C654.191 227.888 658.436 232.807 661.616 239.39C664.795 245.936 666.385 254.146 666.385 264.021C666.385 273.634 664.832 281.751 661.728 288.372C658.661 294.955 654.471 299.949 649.16 303.353C643.886 306.719 637.975 308.403 631.43 308.403C626.791 308.403 622.845 307.636 619.591 306.102C616.374 304.569 613.737 302.642 611.68 300.323C609.622 297.967 608.051 295.591 606.966 293.197H606.237V339.318H582.335ZM605.732 263.909C605.732 269.034 606.443 273.504 607.864 277.319C609.286 281.134 611.343 284.108 614.036 286.24C616.729 288.335 620.002 289.382 623.855 289.382C627.745 289.382 631.037 288.316 633.73 286.184C636.423 284.014 638.462 281.022 639.846 277.207C641.267 273.354 641.978 268.921 641.978 263.909C641.978 258.934 641.286 254.558 639.902 250.78C638.518 247.002 636.479 244.047 633.786 241.915C631.093 239.783 627.783 238.717 623.855 238.717C619.965 238.717 616.673 239.745 613.98 241.803C611.324 243.86 609.286 246.777 607.864 250.555C606.443 254.333 605.732 258.785 605.732 263.909ZM723.175 308.683C714.31 308.683 706.679 306.888 700.283 303.297C693.924 299.669 689.024 294.544 685.583 287.923C682.141 281.265 680.421 273.391 680.421 264.302C680.421 255.437 682.141 247.656 685.583 240.961C689.024 234.265 693.868 229.047 700.115 225.307C706.399 221.566 713.768 219.696 722.221 219.696C727.907 219.696 733.2 220.612 738.1 222.445C743.037 224.241 747.339 226.953 751.005 230.581C754.708 234.209 757.588 238.773 759.645 244.271C761.702 249.732 762.731 256.129 762.731 263.46V270.025H689.959V255.212H740.232C740.232 251.771 739.484 248.723 737.988 246.067C736.491 243.411 734.415 241.335 731.76 239.839C729.141 238.305 726.093 237.538 722.614 237.538C718.986 237.538 715.769 238.38 712.963 240.063C710.195 241.709 708.026 243.935 706.455 246.74C704.884 249.508 704.08 252.594 704.042 255.998V270.081C704.042 274.345 704.828 278.03 706.399 281.134C708.007 284.239 710.27 286.633 713.188 288.316C716.105 289.999 719.565 290.841 723.568 290.841C726.224 290.841 728.655 290.467 730.862 289.719C733.069 288.971 734.958 287.848 736.529 286.352C738.1 284.856 739.297 283.023 740.12 280.854L762.226 282.312C761.104 287.624 758.804 292.262 755.325 296.227C751.884 300.155 747.432 303.222 741.971 305.429C736.547 307.598 730.282 308.683 723.175 308.683ZM779.909 307V220.818H803.082V235.855H803.979C805.55 230.506 808.188 226.466 811.891 223.736C815.594 220.968 819.858 219.584 824.683 219.584C825.88 219.584 827.171 219.659 828.555 219.808C829.939 219.958 831.154 220.164 832.202 220.425V241.634C831.08 241.298 829.527 240.998 827.545 240.737C825.562 240.475 823.748 240.344 822.102 240.344C818.586 240.344 815.444 241.111 812.676 242.644C809.946 244.14 807.776 246.235 806.168 248.928C804.597 251.621 803.811 254.726 803.811 258.242V307H779.909ZM884.737 307V192.091H930.745C939.199 192.091 946.25 193.344 951.898 195.85C957.546 198.356 961.792 201.835 964.634 206.286C967.477 210.7 968.899 215.787 968.899 221.548C968.899 226.036 968.001 229.982 966.206 233.386C964.41 236.753 961.941 239.521 958.799 241.69C955.695 243.822 952.141 245.337 948.139 246.235V247.357C952.515 247.544 956.611 248.779 960.426 251.06C964.279 253.342 967.402 256.54 969.796 260.655C972.19 264.732 973.387 269.595 973.387 275.243C973.387 281.34 971.872 286.782 968.843 291.57C965.85 296.321 961.418 300.08 955.545 302.848C949.672 305.616 942.434 307 933.831 307H884.737ZM909.032 287.138H928.838C935.608 287.138 940.545 285.847 943.65 283.266C946.755 280.648 948.307 277.169 948.307 272.83C948.307 269.651 947.54 266.845 946.007 264.414C944.473 261.983 942.285 260.075 939.442 258.691C936.637 257.307 933.289 256.615 929.399 256.615H909.032V287.138ZM909.032 240.175H927.042C930.371 240.175 933.326 239.596 935.907 238.436C938.526 237.239 940.583 235.556 942.079 233.386C943.613 231.217 944.38 228.617 944.38 225.587C944.38 221.435 942.902 218.088 939.947 215.544C937.029 213 932.877 211.729 927.491 211.729H909.032V240.175ZM1045.59 270.305V220.818H1069.5V307H1046.55V291.346H1045.65C1043.7 296.396 1040.47 300.454 1035.94 303.521C1031.45 306.589 1025.97 308.122 1019.5 308.122C1013.74 308.122 1008.67 306.813 1004.3 304.195C999.921 301.576 996.499 297.854 994.03 293.029C991.599 288.204 990.364 282.425 990.327 275.692V220.818H1014.23V271.428C1014.27 276.515 1015.63 280.536 1018.32 283.491C1021.02 286.446 1024.63 287.923 1029.15 287.923C1032.03 287.923 1034.73 287.269 1037.23 285.96C1039.74 284.613 1041.76 282.63 1043.29 280.012C1044.86 277.394 1045.63 274.158 1045.59 270.305ZM1114.1 257.176V307H1090.19V220.818H1112.97V236.023H1113.98C1115.89 231.011 1119.09 227.046 1123.58 224.129C1128.07 221.174 1133.51 219.696 1139.91 219.696C1145.89 219.696 1151.11 221.005 1155.56 223.624C1160.01 226.242 1163.47 229.982 1165.94 234.845C1168.41 239.67 1169.64 245.431 1169.64 252.126V307H1145.74V256.391C1145.78 251.116 1144.43 247.002 1141.7 244.047C1138.97 241.054 1135.21 239.558 1130.42 239.558C1127.21 239.558 1124.36 240.25 1121.89 241.634C1119.46 243.018 1117.56 245.038 1116.17 247.694C1114.83 250.312 1114.13 253.473 1114.1 257.176ZM1221.82 308.403C1215.27 308.403 1209.34 306.719 1204.03 303.353C1198.76 299.949 1194.57 294.955 1191.46 288.372C1188.4 281.751 1186.86 273.634 1186.86 264.021C1186.86 254.146 1188.45 245.936 1191.63 239.39C1194.81 232.807 1199.04 227.888 1204.31 224.634C1209.62 221.342 1215.44 219.696 1221.76 219.696C1226.59 219.696 1230.61 220.519 1233.83 222.165C1237.08 223.773 1239.7 225.793 1241.68 228.224C1243.7 230.618 1245.23 232.975 1246.28 235.294H1247.01V192.091H1270.86V307H1247.29V293.197H1246.28C1245.16 295.591 1243.57 297.967 1241.51 300.323C1239.49 302.642 1236.86 304.569 1233.6 306.102C1230.38 307.636 1226.46 308.403 1221.82 308.403ZM1229.39 289.382C1233.25 289.382 1236.5 288.335 1239.16 286.24C1241.85 284.108 1243.91 281.134 1245.33 277.319C1246.79 273.504 1247.52 269.034 1247.52 263.909C1247.52 258.785 1246.8 254.333 1245.38 250.555C1243.96 246.777 1241.9 243.86 1239.21 241.803C1236.52 239.745 1233.25 238.717 1229.39 238.717C1225.47 238.717 1222.15 239.783 1219.46 241.915C1216.77 244.047 1214.73 247.002 1213.35 250.78C1211.96 254.558 1211.27 258.934 1211.27 263.909C1211.27 268.921 1211.96 273.354 1213.35 277.207C1214.77 281.022 1216.81 284.014 1219.46 286.184C1222.15 288.316 1225.47 289.382 1229.39 289.382ZM1315.99 192.091V307H1292.09V192.091H1315.99ZM1375.99 308.683C1367.13 308.683 1359.5 306.888 1353.1 303.297C1346.74 299.669 1341.84 294.544 1338.4 287.923C1334.96 281.265 1333.24 273.391 1333.24 264.302C1333.24 255.437 1334.96 247.656 1338.4 240.961C1341.84 234.265 1346.69 229.047 1352.93 225.307C1359.22 221.566 1366.59 219.696 1375.04 219.696C1380.72 219.696 1386.02 220.612 1390.92 222.445C1395.85 224.241 1400.16 226.953 1403.82 230.581C1407.53 234.209 1410.41 238.773 1412.46 244.271C1414.52 249.732 1415.55 256.129 1415.55 263.46V270.025H1342.78V255.212H1393.05C1393.05 251.771 1392.3 248.723 1390.81 246.067C1389.31 243.411 1387.23 241.335 1384.58 239.839C1381.96 238.305 1378.91 237.538 1375.43 237.538C1371.8 237.538 1368.59 238.38 1365.78 240.063C1363.01 241.709 1360.84 243.935 1359.27 246.74C1357.7 249.508 1356.9 252.594 1356.86 255.998V270.081C1356.86 274.345 1357.65 278.03 1359.22 281.134C1360.82 284.239 1363.09 286.633 1366.01 288.316C1368.92 289.999 1372.38 290.841 1376.39 290.841C1379.04 290.841 1381.47 290.467 1383.68 289.719C1385.89 288.971 1387.78 287.848 1389.35 286.352C1390.92 284.856 1392.11 283.023 1392.94 280.854L1415.04 282.312C1413.92 287.624 1411.62 292.262 1408.14 296.227C1404.7 300.155 1400.25 303.222 1394.79 305.429C1389.37 307.598 1383.1 308.683 1375.99 308.683Z" fill="white"/>
</svg>
